<svg xmlns="http://www.w3.org/2000/svg" width="576" height="512" viewBox="0 0 576 512" fill="white">
<path d="M368 96C394.5 96 416 74.5 416 48C416 21.5 394.5 0 368 0C341.5 0 320 21.5 320 48C320 74.5 341.5 96 368 96ZM395.2 160L333.4 111.2C316.1 97.6 291.7 97.4 274.3 110.9L191.2 175.1C160.5 198.9 162.7 245.9 195.5 266.7L256 305.1V416C256 433.7 270.3 448 288 448C305.7 448 320 433.7 320 416V288C320 277.3 314.7 267.3 305.8 261.4L263 232.9L323.3 184.4L364 217C369.7 221.5 376.7 224 384 224H448C465.7 224 480 209.7 480 192C480 174.3 465.7 160 448 160H395.2ZM112 512C173.9 512 224 461.9 224 400C224 338.1 173.9 288 112 288C50.1 288 0 338.1 0 400C0 461.9 50.1 512 112 512ZM464 512C525.9 512 576 461.9 576 400C576 338.1 525.9 288 464 288C402.1 288 352 338.1 352 400C352 461.9 402.1 512 464 512Z"/>
</svg>
